<svg width="141" height="129" viewBox="0 0 141 129" fill="none" xmlns="http://www.w3.org/2000/svg">
<path d="M93.8597 32.0876C102.706 32.0876 109.904 24.8902 109.904 16.0438C109.904 7.19723 102.706 0 93.8597 0C85.0131 0 77.8159 7.19748 77.8159 16.0438C77.8159 24.8902 85.0131 32.0876 93.8597 32.0876Z" fill="#AF2896"/>
<path d="M93.8595 128.087C85.0134 128.087 77.8151 120.888 77.8151 112.042C77.8151 103.196 85.0134 95.9978 93.8595 95.9978C102.706 95.9978 109.904 103.196 109.904 112.042C109.904 120.888 102.706 128.087 93.8595 128.087Z" fill="#AF2896"/>
<path d="M107.915 43.6756C107.915 52.5222 115.112 59.7196 123.959 59.7196C132.806 59.7196 140.003 52.5222 140.003 43.6756C140.003 34.8289 132.806 27.6315 123.959 27.6315C115.112 27.6317 107.915 34.8289 107.915 43.6756Z" fill="#AF2896"/>
<path d="M123.958 100.35C115.112 100.35 107.914 93.1522 107.914 84.3061C107.914 75.4601 115.112 68.2618 123.958 68.2618C132.805 68.2618 140.003 75.4601 140.003 84.3061C140.003 93.1522 132.805 100.35 123.958 100.35Z" fill="#AF2896"/>
<path d="M8.00281 112C-0.384872 107.515 0.0027771 94.1563 0.0027771 85.183V40.9039C0.0027771 31.9307 -0.384872 16.9879 8.00281 12.5C16.3932 8.01465 31.8112 14.9219 40.1989 19.4073L81.6023 41.5468C89.9927 46.0347 101 54.2278 101 63.201C100.915 72.0802 89.9186 80.0929 81.6023 84.5376L40.1989 106.677C31.8112 111.165 16.3932 116.488 8.00281 112Z" fill="#AF2896"/>
<path d="M40.2001 106.732C31.8122 111.147 16.3935 116.415 8.00281 112C-0.385117 107.588 0.00288391 94.4158 0.00288391 85.589V64.0433H100.956C100.503 72.5 89.9213 80.5819 81.6047 84.9541L40.2001 106.732Z" fill="#862372"/>
<path d="M123.958 68.2618C132.805 68.2618 140.003 75.46 140.003 84.3061C140.003 93.1522 132.805 100.35 123.958 100.35C115.112 100.35 107.914 93.1522 107.914 84.3061C107.914 75.46 115.112 68.2618 123.958 68.2618Z" fill="#862372"/>
<path d="M93.8595 128.087C85.0134 128.087 77.8151 120.888 77.8151 112.042C77.8151 103.196 85.0134 95.9978 93.8595 95.9978C102.706 95.9978 109.904 103.196 109.904 112.042C109.904 120.888 102.706 128.087 93.8595 128.087Z" fill="#862372"/>
</svg>
